<?xml version="1.0" encoding="UTF-8"?>
<svg id="svg8" width="256" height="256" version="1.1" viewBox="0 0 67.733 67.733" xmlns="http://www.w3.org/2000/svg">
 <g id="layer1" transform="translate(-34.66 -82.535)">
  <g id="text12" aria-label="L1">
   <g id="g21" transform="matrix(2.3799 0 0 2.3799 -47.122 -208.15)" stroke-width=".26458">
    <path id="path14" d="m43.491 123.07h0.16123q0.48369 0.11163 0.90537 0.55811h0.23564q0.02481-0.11162 0.14883-0.11162h0.14883q0 0.0744 0.45889 0.33486 0.32246-0.33486 0.68213-0.33486l0.16123 0.0496q0.12402-0.0496 0.29766-0.0496 0.33486 0.22324 0.38447 0.22324 0-0.0992 0.45889-0.17363 0.43408 0.23564 0.68213 0.84336v0.21084q0 1.9224-4.4152 11.447-2.6665 3.9564-2.6665 4.502-0.68213 1.4015-0.68213 1.5007h0.07441q2.5425-1.2526 6.0896-2.22l-0.31006 0.22324h0.08682q0.24805-0.11162 0.37207-0.11162v0.0496q0 0.13642-2.0588 1.5627h0.08682l5.0229-1.7239q-0.38447 0.22324-0.38447 0.27285h0.07441q0.24805-0.11162 0.38447-0.11162v0.062q-0.68213 0.27285-0.68213 0.60771-8.4336 5.1842-11.05 6.1144-1.1286 0.27285-1.5875 1.0046-0.14883 0.24804-0.31006 0.27285-0.38447 0-0.38447-0.66973v-0.38447l-0.5333 0.11162q-0.68213-0.33486-0.68213-0.60771v-0.39688q0-0.13642 1.141-0.88057 0-0.38447 0.76895-1.0046 0.78135-1.6371 1.3643-4.7253 0-1.203 4.192-13.891 0.07441-0.0496 0.83096-2.3316 0.28525 0 0.5333-0.22325z"/>
    <path id="path16" d="m58.361 122.47q0.38447 0 0.62012 0.42168 0.63252 0 0.63252 0.48369l0.13643-0.0744q0.27285 0.13642 0.48369 0.13642 0.34727-0.19843 0.55811-0.19843h0.07441q0.62012 0.89297 1.0418 0.89297 0.17363 0.34726 0.27285 0.34726 0.16123 0.0496 0.34727 0.4961 0 0.062-0.07441 0.062l0.07441 0.49609q0 0.60772-3.6835 7.7019-1.972 4.9113-5.4942 10.294-0.49609 1.0542-1.2402 2.0836v-0.0744l0.13643-0.48369q-1.5131 2.034-3.3362 5.209v-0.13642q0-0.0868 0.27285-0.83096v-0.0744h-0.06201q-0.34727 0.78134-0.34727 0.83095h-0.13643v-0.21084q0-0.062 0.06201-0.062l-0.06201-0.13642q0-0.54571 1.9348-6.7469 0-1.7859 4.1796-9.8599l1.3146-2.989h-0.13643q-1.6743 0.90538-2.0216 0.90538l0.13643-0.21084h-0.06201q-1.0914 0.83095-1.3891 0.83095h-0.21084q-0.09922 0-0.21084-0.27285l-0.13643 0.062q-0.35967 0-0.42168-0.21084l0.14883-0.19843q-0.33486 0-0.42168-0.55811 0.09922-0.23564 0.27285-0.42168l-0.06201-0.13643 1.6619-2.22q0-0.33486 3.2742-4.4524 0.38447-0.48369 0.96738-0.48369 0.13642 0.16123 0.13642 0.27285h0.07441z"/>
   </g>
  </g>
 </g>
</svg>
